<?xml version="1.0" encoding="UTF-8"?>
<svg width="16px" height="16px" viewBox="0 0 16 16" version="1.1" xmlns="http://www.w3.org/2000/svg" xmlns:xlink="http://www.w3.org/1999/xlink">
    <!-- Generator: Sketch 42 (36781) - http://www.bohemiancoding.com/sketch -->
    <title>star</title>
    <desc>Created with Sketch.</desc>
    <defs></defs>
    <g id="Page-1" stroke="none" stroke-width="1" fill="none" fill-rule="evenodd">
        <path d="M15.9068148,6.57409132 C15.9994076,6.48149848 16.0179262,6.33334994 15.980889,6.20371997 C15.9253333,6.07409 15.7957034,6.00001574 15.6660734,6.00001574 L10.5549489,6.00001574 L8.31420227,0.222222805 C8.25864657,0.0925928354 8.1290166,0 7.99938663,0 C7.86975666,0 7.7401267,0.0925928354 7.68457099,0.222222805 L5.44382438,6.00001574 L0.332699861,6.00001574 C0.203069892,6.00001574 0.073439922,6.07409 0.0178842208,6.20371997 C-0.0191529134,6.33334994 -0.000634346334,6.48149848 0.0919584891,6.57409132 L3.98085758,10.4444718 L2.99937352,15.6111521 C2.98085495,15.740782 3.03641066,15.870412 3.14752206,15.9444863 C3.25863346,16.0185605 3.406782,16.0185605 3.5178934,15.9444863 L7.99938663,13.0555898 L12.4808799,15.9444863 C12.5364356,15.9815234 12.6105098,16.000042 12.6660655,16.000042 C12.7216212,16.000042 12.7956955,15.9815234 12.8512512,15.9444863 C12.9623626,15.870412 13.0179183,15.740782 12.9993997,15.6111521 L12.0179157,10.4444718 L15.9068148,6.57409132 Z" id="star" fill="#B1B5B3"></path>
    </g>
</svg>