<?xml version="1.0" encoding="UTF-8"?>
<svg width="17px" height="21px" viewBox="0 0 17 21" version="1.1" xmlns="http://www.w3.org/2000/svg" xmlns:xlink="http://www.w3.org/1999/xlink">
    <!-- Generator: Sketch 42 (36781) - http://www.bohemiancoding.com/sketch -->
    <title>document</title>
    <desc>Created with Sketch.</desc>
    <defs></defs>
    <g id="Page-1" stroke="none" stroke-width="1" fill="none" fill-rule="evenodd">
        <path d="M16.25625,0.74375 C16.7025,0.875 17,1.290625 17,1.75 L17,14 C17,15.946875 12.1125,20.95625 10.22125,20.95625 L9.8175,20.978125 C9.54125,21 9.37125,21 8.84,21 C4.0375,21 0.935,20.3 0.8075,20.278125 C0.34,20.16875 0,19.73125 0,19.25 L0,1.75 C0,1.246875 0.34,0.83125 0.8075,0.721875 C0.935,0.7 4.0375,0 8.84,0 C13.685,0 16.15,0.7 16.25625,0.74375 Z M3.4,5.6 L13.6,5.6 L13.6,4.2 L3.4,4.2 L3.4,5.6 Z M3.4,8.4 L13.6,8.4 L13.6,7 L3.4,7 L3.4,8.4 Z M3.4,11.2 L13.6,11.2 L13.6,9.8 L3.4,9.8 L3.4,11.2 Z M9.52,18.9 C10.2,18.9 10.88,18.265625 10.88,17.5 L10.88,15.4 C10.88,15.09375 11.2625,14.7 11.56,14.7 L13.6,14.7 C14.34375,14.7 14.96,14.065625 14.96,13.3 L11.56,13.3 C10.51875,13.3 9.52,14.328125 9.52,15.4 L9.52,18.9 Z" id="document" fill="#8B8D8C"></path>
    </g>
</svg>