<?xml version="1.0" encoding="UTF-8"?>
<svg width="15px" height="15px" viewBox="0 0 15 15" version="1.1" xmlns="http://www.w3.org/2000/svg" xmlns:xlink="http://www.w3.org/1999/xlink">
    <!-- Generator: Sketch 42 (36781) - http://www.bohemiancoding.com/sketch -->
    <title>search</title>
    <desc>Created with Sketch.</desc>
    <defs></defs>
    <g id="Page-1" stroke="none" stroke-width="1" fill="none" fill-rule="evenodd">
        <path d="M9.37502459,0 C12.4826716,0 15.0000393,2.51736771 15.0000393,5.62501475 C15.0000393,8.73266179 12.4826716,11.2500295 9.37502459,11.2500295 C8.26391056,11.2500295 7.23960232,10.9375287 6.37154449,10.3819717 L2.13542227,14.635455 C1.89236607,14.8785112 1.5625041,15.0000393 1.25000328,15.0000393 C0.920141302,15.0000393 0.607640482,14.8785112 0.364584289,14.635455 C-0.121528096,14.1493427 -0.121528096,13.3507295 0.364584289,12.8646171 L4.61806767,8.62849485 C4.06251065,7.76043702 3.75000983,6.73612878 3.75000983,5.62501475 C3.75000983,2.51736771 6.26737755,0 9.37502459,0 Z M9.37502459,9.37502459 C11.4410022,9.37502459 13.1250344,7.69099239 13.1250344,5.62501475 C13.1250344,3.55903711 11.4410022,1.87500492 9.37502459,1.87500492 C7.30904695,1.87500492 5.62501475,3.55903711 5.62501475,5.62501475 C5.62501475,7.69099239 7.30904695,9.37502459 9.37502459,9.37502459 Z" id="search" fill="#00573B" transform="translate(7.500020, 7.500020) scale(-1, 1) translate(-7.500020, -7.500020) "></path>
    </g>
</svg>