<?xml version="1.0" encoding="UTF-8"?>
<svg width="19px" height="19px" viewBox="0 0 19 19" version="1.1" xmlns="http://www.w3.org/2000/svg" xmlns:xlink="http://www.w3.org/1999/xlink">
    <!-- Generator: Sketch 42 (36781) - http://www.bohemiancoding.com/sketch -->
    <title>edit</title>
    <desc>Created with Sketch.</desc>
    <defs></defs>
    <g id="Page-1" stroke="none" stroke-width="1" fill="none" fill-rule="evenodd">
        <path d="M15.4418271,7.12156295 L5.65272682,16.910275 C5.60873087,16.9542692 5.56473491,16.9762663 5.52073896,16.9982634 L0.549195919,18.9780029 C0.483201985,19 0.439206029,19 0.395210073,19 C0.285220182,19 0.19722827,18.9560058 0.109236358,18.8900145 C-0.000753532207,18.7800289 -0.0227515102,18.6040521 0.0212444458,18.4500724 L2.00106247,13.4787265 C2.02306045,13.4347323 2.04505843,13.3907381 2.08905438,13.3467438 L11.8781546,3.55803184 L15.4418271,7.12156295 Z M18.6535318,2.21620839 C19.1154894,2.70014472 19.1154894,3.44804631 18.6535318,3.90998553 L16.6297179,5.93371925 L13.0660454,2.37018813 L15.0898594,0.346454414 C15.5518169,-0.115484805 16.2997482,-0.115484805 16.7837037,0.346454414 L18.6535318,2.21620839 Z" id="edit" fill="#8B8D8C"></path>
    </g>
</svg>