<?xml version="1.0" encoding="UTF-8"?>
<svg width="21px" height="18px" viewBox="0 0 21 18" version="1.1" xmlns="http://www.w3.org/2000/svg" xmlns:xlink="http://www.w3.org/1999/xlink">
    <!-- Generator: Sketch 42 (36781) - http://www.bohemiancoding.com/sketch -->
    <title>email</title>
    <desc>Created with Sketch.</desc>
    <defs></defs>
    <g id="Page-1" stroke="none" stroke-width="1" fill="none" fill-rule="evenodd">
        <path d="M13.5703125,11.8125 L21,6.1171875 L21,16.5703125 C21,16.9453125 20.71875,17.25 20.34375,17.296875 C17.109375,17.765625 13.78125,18 10.5,18 C7.21875,18 3.890625,17.765625 0.6328125,17.296875 C0.28125,17.25 0,16.9453125 0,16.5703125 L0,6.1171875 L7.4296875,11.8125 C8.296875,12.46875 9.3984375,12.75 10.5,12.75 C11.6015625,12.75 12.703125,12.46875 13.5703125,11.8125 Z M0.8203125,3.75 C0.2578125,3.2109375 0.0703125,2.765625 0,2.5078125 L0,1.4296875 C0,1.0546875 0.28125,0.75 0.6328125,0.703125 C3.890625,0.234375 7.1953125,0 10.5,0 C13.8046875,0 17.109375,0.234375 20.34375,0.703125 C20.71875,0.75 21,1.0546875 21,1.4296875 L21,2.5078125 C20.9296875,2.765625 20.7421875,3.2109375 20.1796875,3.75 L12.1875,9.796875 C11.7421875,10.1484375 11.1328125,10.3125 10.5,10.3125 C9.8671875,10.3125 9.2578125,10.1484375 8.8125,9.796875 L0.8203125,3.75 Z" id="email" fill="#8B8D8C"></path>
    </g>
</svg>