<?xml version="1.0" standalone="no"?>
<!DOCTYPE svg PUBLIC "-//W3C//DTD SVG 20010904//EN"
 "http://www.w3.org/TR/2001/REC-SVG-20010904/DTD/svg10.dtd">
<svg version="1.0" xmlns="http://www.w3.org/2000/svg"
 width="87.000000pt" height="22.000000pt" viewBox="0 0 87.000000 22.000000"
 preserveAspectRatio="xMidYMid meet">

<g transform="translate(0.000000,22.000000) scale(0.100000,-0.100000)"
fill="#000000" stroke="none">
<path d="M0 140 c0 -75 1 -80 22 -80 20 0 20 1 3 20 -56 62 66 123 132 66 l28
-25 -24 -9 c-20 -7 -21 -10 -8 -15 10 -4 17 -18 18 -34 1 -20 4 -15 10 17 19
98 8 89 111 87 l93 -2 5 -30 6 -30 18 34 c15 28 22 32 46 29 25 -4 29 -1 32
24 l5 28 -249 0 -248 0 0 -80z"/>
<path d="M568 192 c-4 -25 -1 -28 22 -24 16 2 34 -3 44 -14 17 -17 17 -56 -1
-131 -3 -13 -1 -23 4 -23 8 0 19 49 40 188 l5 32 -55 0 c-52 0 -55 -1 -59 -28z"/>
<path d="M756 198 c-9 -34 -7 -38 8 -32 8 3 16 14 19 25 7 28 67 27 67 -1 0
-11 5 -20 10 -20 6 0 10 11 10 25 0 24 -3 25 -54 25 -47 0 -54 -3 -60 -22z"/>
<path d="M445 73 c-40 -76 -40 -73 -12 -73 23 0 26 6 36 62 6 34 9 63 8 64 -1
2 -16 -22 -32 -53z"/>
<path d="M311 113 c-1 -6 -11 -13 -23 -15 -17 -2 -25 -14 -34 -50 l-12 -48 53
0 54 0 -15 53 c-20 67 -22 74 -23 60z"/>
<path d="M733 60 c-9 -59 -9 -60 14 -60 21 0 22 3 13 20 -6 11 -8 35 -5 54 4
19 2 36 -3 40 -5 3 -14 -21 -19 -54z"/>
<path d="M848 109 c-22 -12 -23 -45 -3 -53 11 -4 14 -13 9 -31 -4 -15 -2 -25
5 -25 7 0 11 23 11 60 0 33 -1 60 -2 60 -2 0 -11 -5 -20 -11z"/>
<path d="M543 55 c-7 -40 -7 -55 2 -55 6 0 11 10 12 23 1 12 5 37 8 55 3 17 2
32 -3 32 -5 0 -13 -25 -19 -55z"/>
<path d="M0 16 c0 -10 8 -16 22 -16 12 0 19 1 17 3 -2 1 -12 9 -21 16 -15 12
-18 11 -18 -3z"/>
<path d="M150 15 c-10 -12 -10 -15 4 -15 9 0 16 7 16 15 0 8 -2 15 -4 15 -2 0
-9 -7 -16 -15z"/>
</g>
</svg>
