<?xml version="1.0" encoding="UTF-8"?>
<svg width="16px" height="16px" viewBox="0 0 16 16" version="1.1" xmlns="http://www.w3.org/2000/svg" xmlns:xlink="http://www.w3.org/1999/xlink">
    <!-- Generator: Sketch 42 (36781) - http://www.bohemiancoding.com/sketch -->
    <title>star</title>
    <desc>Created with Sketch.</desc>
    <defs></defs>
    <g id="Page-1" stroke="none" stroke-width="1" fill="none" fill-rule="evenodd">
        <path d="M15.9074491,6.57404935 C16.000042,6.48145652 16.0185605,6.33330798 15.9815234,6.20367801 C15.9259677,6.07404804 15.7963377,5.99997377 15.6667078,5.99997377 L10.5555832,5.99997377 L8.31483662,0.222180843 C8.25928092,0.0925508738 8.12965095,-4.19616699e-05 8.00002098,-4.19616699e-05 C7.87039101,-4.19616699e-05 7.74076104,0.0925508738 7.68520534,0.222180843 L5.44445872,5.99997377 L0.333334208,5.99997377 C0.203704238,5.99997377 0.0740742683,6.07404804 0.0185185671,6.20367801 C-0.0185185671,6.33330798 1.63064007e-16,6.48145652 0.0925928354,6.57404935 L3.98149192,10.4444299 L3.00000787,15.6111101 C2.9814893,15.7407401 3.037045,15.87037 3.1481564,15.9444443 C3.25926781,16.0185186 3.40741634,16.0185186 3.51852775,15.9444443 L8.00002098,13.0555478 L12.4815142,15.9444443 C12.5370699,15.9814814 12.6111442,16 12.6666999,16 C12.7222556,16 12.7963299,15.9814814 12.8518856,15.9444443 C12.962997,15.87037 13.0185527,15.7407401 13.0000341,15.6111101 L12.01855,10.4444299 L15.9074491,6.57404935 Z" id="star" fill="#FFBF00"></path>
    </g>
</svg>