<?xml version="1.0" encoding="UTF-8"?>
<svg width="40px" height="40px" viewBox="0 0 40 40" version="1.1" xmlns="http://www.w3.org/2000/svg" xmlns:xlink="http://www.w3.org/1999/xlink">
    <!-- Generator: Sketch 42 (36781) - http://www.bohemiancoding.com/sketch -->
    <title>Rectangle</title>
    <desc>Created with Sketch.</desc>
    <defs></defs>
    <g id="Page-1" stroke="none" stroke-width="1" fill="none" fill-rule="evenodd">
        <path d="M10,8 L10,2.0085302 C10,0.899249601 10.8982124,0 11.9907951,0 L28.0092049,0 C29.1086907,0 30,0.901950359 30,2.0085302 L30,8 L38.0027084,8 C39.1057821,8 40,8.89821238 40,9.99079514 L40,26.0092049 C40,27.1067535 39.1060981,27.9968586 38,27.9999917 L38,38.0059397 C38,39.1072288 37.1101074,40 36.0002927,40 L3.99970728,40 C2.89529944,40 2,39.1054862 2,38.0059397 L2,28 C0.89524884,28 0,27.1017876 0,26.0092049 L0,9.99079514 C0,8.89130934 0.891539827,8 1.99729162,8 L10,8 Z M14,8 L26,8 L26,4 L14,4 L14,8 Z M6,28 L6,36 L34,36 L34,28 L26,28 L26,29.9914698 C26,31.1007504 25.0980496,32 23.9914698,32 L16.0085302,32 C14.8992496,32 14,31.0980496 14,29.9914698 L14,28 L6,28 Z M26,24 L36,24 L36,12 L4,12 L4,24 L14,24 L14,22.0085302 C14,20.8992496 14.9019504,20 16.0085302,20 L23.9914698,20 C25.1007504,20 26,20.9019504 26,22.0085302 L26,24 Z M18,24 L18,28 L22,28 L22,24 L18,24 Z" id="Rectangle" fill="#00573B"></path>
    </g>
</svg>